{
  "asset": {
    "version": "2.0",
    "generator": "THREE.GLTFExporter"
  },
  "scenes": [
    {
      "nodes": [
        0,
        1
      ],
      "name": "Scene"
    }
  ],
  "scene": 0,
  "nodes": [
    {
      "matrix": [
        -1.0907214918998291,
        -6.419723840252024e-13,
        0.06050539247351955,
        0,
        -9.858222515982547e-9,
        1.0923986434936375,
        -1.777010848257386e-7,
        0,
        -0.06050539247351874,
        -1.779742854256833e-7,
        -1.0907214918998145,
        0,
        0.15136472880840302,
        47.947792053222656,
        -0.2669444978237152,
        1
      ],
      "name": "achille",
      "extras": {
        "transformData": {
          "inheritType": 1,
          "eulerOrder": "ZYX",
          "translation": [
            0.15136472880840302,
            47.947792053222656,
            -0.2669444978237152
          ],
          "rotation": [
            0.00000933466519994542,
            -176.82489595062754,
            3.37229150078574e-11
          ],
          "scale": [
            1.0923984050750732,
            1.0923986434936523,
            1.0923984050750732
          ],
          "parentMatrixWorld": {
            "elements": [
              1,
              0,
              0,
              0,
              0,
              1,
              0,
              0,
              0,
              0,
              1,
              0,
              0,
              0,
              0,
              1
            ]
          }
        }
      },
      "mesh": 0
    },
    {}
  ],
  "bufferViews": [
    {
      "buffer": 0,
      "byteOffset": 0,
      "byteLength": 73296,
      "target": 34962,
      "byteStride": 12
    },
    {
      "buffer": 0,
      "byteOffset": 73296,
      "byteLength": 73296,
      "target": 34962,
      "byteStride": 12
    }
  ],
  "buffers": [
    {
      "byteLength": 146592,
      "uri": "data:application/octet-stream;base64,"
    }
  ],
  "accessors": [
    {
      "bufferView": 0,
      "componentType": 5126,
      "count": 6108,
      "max": [
        33.98826599121094,
        47.348854064941406,
        21.646568298339844
      ],
      "min": [
        -31.036405563354492,
        -43.973304748535156,
        -11.776065826416016
      ],
      "type": "VEC3"
    },
    {
      "bufferView": 1,
      "componentType": 5126,
      "count": 6108,
      "max": [
        0.9999760985374451,
        0.9998912811279297,
        0.9998930096626282
      ],
      "min": [
        -0.9999458193778992,
        -1,
        -0.9999702572822571
      ],
      "type": "VEC3"
    }
  ],
  "materials": [
    {
      "pbrMetallicRoughness": {
        "metallicFactor": 0.5,
        "roughnessFactor": 0.5
      },
      "name": "achille"
    }
  ],
  "meshes": [
    {
      "primitives": [
        {
          "mode": 4,
          "attributes": {
            "POSITION": 0,
            "NORMAL": 1
          },
          "material": 0
        }
      ]
    }
  ]
}