{
  "asset": {
    "version": "2.0",
    "generator": "THREE.GLTFExporter"
  },
  "scenes": [
    {
      "nodes": [
        1
      ],
      "name": "Scene"
    }
  ],
  "scene": 0,
  "nodes": [
    {
      "matrix": [
        0.0010604977692997189,
        1.016971669208663e-15,
        -1.2902931385193068,
        0,
        2.1024994284960647e-7,
        1.2902936935424634,
        1.7280639640956662e-10,
        0,
        1.2902931385192897,
        -2.102499944403472e-7,
        0.0010604977692997189,
        0,
        0.2889813780784607,
        47.67256164550781,
        -8.589515686035156,
        1
      ],
      "name": "trajna",
      "extras": {
        "transformData": {
          "inheritType": 1,
          "eulerOrder": "ZYX",
          "translation": [
            0.2889813780784607,
            47.67256164550781,
            -8.589515686035156
          ],
          "rotation": [
            0.000009336253747064405,
            89.95290835015093,
            5.494418151461605e-11
          ],
          "scale": [
            1.290293574333191,
            1.2902936935424805,
            1.290293574333191
          ],
          "parentMatrixWorld": {
            "elements": [
              1,
              0,
              0,
              0,
              0,
              1,
              0,
              0,
              0,
              0,
              1,
              0,
              0,
              0,
              0,
              1
            ]
          }
        }
      },
      "mesh": 0
    },
    {
      "children": [
        0
      ]
    }
  ],
  "bufferViews": [
    {
      "buffer": 0,
      "byteOffset": 0,
      "byteLength": 76968,
      "target": 34962,
      "byteStride": 12
    },
    {
      "buffer": 0,
      "byteOffset": 76968,
      "byteLength": 76968,
      "target": 34962,
      "byteStride": 12
    }
  ],
  "buffers": [
    {
      "byteLength": 153936,
      "uri": "data:application/octet-stream;base64,"
    }
  ],
  "accessors": [
    {
      "bufferView": 0,
      "componentType": 5126,
      "count": 6414,
      "max": [
        18.357940673828125,
        40.055782318115234,
        21.9687557220459
      ],
      "min": [
        -11.671895027160645,
        -36.91427230834961,
        -15.723884582519531
      ],
      "type": "VEC3"
    },
    {
      "bufferView": 1,
      "componentType": 5126,
      "count": 6414,
      "max": [
        0.9999680519104004,
        0.9999265074729919,
        0.9999728798866272
      ],
      "min": [
        -0.9999726414680481,
        -0.9999955296516418,
        -0.9998501539230347
      ],
      "type": "VEC3"
    }
  ],
  "materials": [
    {
      "pbrMetallicRoughness": {
        "metallicFactor": 0.5,
        "roughnessFactor": 0.5
      },
      "name": "traian"
    }
  ],
  "meshes": [
    {
      "primitives": [
        {
          "mode": 4,
          "attributes": {
            "POSITION": 0,
            "NORMAL": 1
          },
          "material": 0
        }
      ]
    }
  ]
}