{
  "asset": {
    "version": "2.0",
    "generator": "THREE.GLTFExporter"
  },
  "scenes": [
    {
      "nodes": [
        0
      ],
      "name": "Scene"
    }
  ],
  "scene": 0,
  "nodes": [
    {
      "matrix": [
        -8.291659744066664,
        2.185918970440324e-17,
        0.053737712397232414,
        0,
        -8.754980861392414e-9,
        8.2918300628661,
        -0.0000013508822633371523,
        0,
        -0.053737712397231685,
        -0.0000013509112547656219,
        -8.291659744066552,
        0,
        0.09305965900421143,
        43.74287033081055,
        0.5470439195632935,
        1
      ],
      "name": "venus",
      "extras": {
        "transformData": {
          "inheritType": 1,
          "eulerOrder": "ZYX",
          "translation": [
            0.09305965900421143,
            43.74287033081055,
            0.5470439195632935
          ],
          "rotation": [
            0.000009334667642611415,
            -179.62867494453943,
            -1.510480868263046e-16
          ],
          "scale": [
            8.291833877563477,
            8.291830062866211,
            8.291833877563477
          ],
          "parentMatrixWorld": {
            "elements": [
              1,
              0,
              0,
              0,
              0,
              1,
              0,
              0,
              0,
              0,
              1,
              0,
              0,
              0,
              0,
              1
            ]
          }
        }
      },
      "mesh": 0
    }
  ],
  "bufferViews": [
    {
      "buffer": 0,
      "byteOffset": 0,
      "byteLength": 74232,
      "target": 34962,
      "byteStride": 12
    },
    {
      "buffer": 0,
      "byteOffset": 74232,
      "byteLength": 74232,
      "target": 34962,
      "byteStride": 12
    }
  ],
  "buffers": [
    {
      "byteLength": 148464,
      "uri": "data:application/octet-stream;base64,"
    }
  ],
  "accessors": [
    {
      "bufferView": 0,
      "componentType": 5126,
      "count": 6186,
      "max": [
        2.1009299755096436,
        6.821897506713867,
        1.9362664222717285
      ],
      "min": [
        -1.708309292793274,
        -5.2752556800842285,
        -1.7906018495559692
      ],
      "type": "VEC3"
    },
    {
      "bufferView": 1,
      "componentType": 5126,
      "count": 6186,
      "max": [
        0.9999810457229614,
        0.9998334050178528,
        0.9996154308319092
      ],
      "min": [
        -0.9999086260795593,
        -0.999931812286377,
        -0.9998140335083008
      ],
      "type": "VEC3"
    }
  ],
  "materials": [
    {
      "pbrMetallicRoughness": {
        "metallicFactor": 0.5,
        "roughnessFactor": 0.5
      },
      "name": "venus"
    }
  ],
  "meshes": [
    {
      "primitives": [
        {
          "mode": 4,
          "attributes": {
            "POSITION": 0,
            "NORMAL": 1
          },
          "material": 0
        }
      ]
    }
  ]
}